<svg width="16" height="16" viewBox="0 0 16 16" fill="none" xmlns="http://www.w3.org/2000/svg">
    <path fill-rule="evenodd" clip-rule="evenodd" d="M1.33984 2.57997L2.27984 1.6333L14.0998 13.4666L13.1598 14.4066L10.8732 12.12C9.97984 12.4666 9.01317 12.6666 7.99984 12.6666C4.6665 12.6666 1.81984 10.5933 0.666504 7.66663C1.17984 6.3533 2.03984 5.21997 3.1265 4.36663L1.33984 2.57997ZM11.3332 7.66663C11.3332 5.82663 9.83984 4.3333 7.99984 4.3333C7.65984 4.3333 7.33317 4.39997 7.01984 4.4933L5.57317 3.04663C6.33984 2.79997 7.15317 2.66663 7.99984 2.66663C11.3332 2.66663 14.1798 4.73997 15.3332 7.65997C14.8732 8.8333 14.1398 9.85997 13.2132 10.68L11.1732 8.63997C11.2665 8.3333 11.3332 8.00663 11.3332 7.66663ZM7.99984 11C6.15984 11 4.6665 9.50663 4.6665 7.66663C4.6665 7.1533 4.7865 6.66663 4.99317 6.23997L6.03984 7.28663C6.01984 7.40663 5.99984 7.5333 5.99984 7.66663C5.99984 8.7733 6.89317 9.66663 7.99984 9.66663C8.13317 9.66663 8.25317 9.64663 8.37984 9.61997L9.4265 10.6666C8.99317 10.88 8.51317 11 7.99984 11ZM9.97984 7.44663C9.87984 6.5133 9.1465 5.78663 8.21984 5.68663L9.97984 7.44663Z" fill="#001141"/>
</svg>
