<svg width="16" height="16" viewBox="0 0 16 16" fill="none" xmlns="http://www.w3.org/2000/svg">
    <path fill-rule="evenodd" clip-rule="evenodd" d="M7.99984 5.33341C8.73317 5.33341 9.33317 4.73341 9.33317 4.00008C9.33317 3.26675 8.73317 2.66675 7.99984 2.66675C7.2665 2.66675 6.6665 3.26675 6.6665 4.00008C6.6665 4.73341 7.2665 5.33341 7.99984 5.33341ZM7.99984 6.66675C7.2665 6.66675 6.6665 7.26675 6.6665 8.00008C6.6665 8.73341 7.2665 9.33341 7.99984 9.33341C8.73317 9.33341 9.33317 8.73341 9.33317 8.00008C9.33317 7.26675 8.73317 6.66675 7.99984 6.66675ZM6.6665 12.0001C6.6665 11.2667 7.2665 10.6667 7.99984 10.6667C8.73317 10.6667 9.33317 11.2667 9.33317 12.0001C9.33317 12.7334 8.73317 13.3334 7.99984 13.3334C7.2665 13.3334 6.6665 12.7334 6.6665 12.0001Z" fill="#001141"/>
</svg>
