<svg width="267" height="67" viewBox="0 0 267 67" fill="none" xmlns="http://www.w3.org/2000/svg">
    <path d="M249.35 42.1264L249.334 34.9879H250.282L259.299 24.9091H266.208L255.117 37.2585H253.892L249.35 42.1264ZM243.96 50V16.5455H249.873V50H243.96ZM259.707 50L251.539 38.5817L255.525 34.4162L266.78 50H259.707Z" fill="#001141"/>
    <path d="M239.465 31.5412L234.074 32.1293C233.922 31.5848 233.655 31.0729 233.274 30.5938C232.903 30.1146 232.402 29.728 231.771 29.434C231.139 29.1399 230.366 28.9929 229.451 28.9929C228.221 28.9929 227.186 29.2597 226.348 29.7933C225.52 30.327 225.111 31.0185 225.122 31.8679C225.111 32.5975 225.378 33.1911 225.923 33.6484C226.478 34.1058 227.393 34.4815 228.667 34.7756L232.947 35.6904C235.321 36.2022 237.085 37.0135 238.24 38.1243C239.405 39.2351 239.993 40.6889 240.004 42.4858C239.993 44.0649 239.53 45.4588 238.615 46.6676C237.711 47.8655 236.454 48.8021 234.842 49.4773C233.23 50.1525 231.379 50.4901 229.288 50.4901C226.217 50.4901 223.745 49.8475 221.872 48.5625C219.999 47.2666 218.882 45.4643 218.523 43.1556L224.289 42.6002C224.551 43.7327 225.106 44.5876 225.955 45.1648C226.805 45.742 227.91 46.0306 229.272 46.0306C230.676 46.0306 231.803 45.742 232.653 45.1648C233.513 44.5876 233.943 43.8743 233.943 43.0249C233.943 42.3061 233.666 41.7126 233.11 41.2443C232.566 40.7761 231.716 40.4167 230.562 40.1662L226.282 39.2678C223.875 38.7668 222.095 37.9228 220.941 36.7358C219.786 35.5379 219.214 34.0242 219.225 32.1946C219.214 30.6482 219.634 29.3087 220.483 28.1761C221.343 27.0327 222.536 26.1506 224.061 25.5298C225.596 24.8982 227.366 24.5824 229.37 24.5824C232.31 24.5824 234.624 25.2086 236.312 26.4609C238.011 27.7133 239.062 29.4067 239.465 31.5412Z" fill="#001141"/>
    <path d="M201.36 50.5064C199.77 50.5064 198.338 50.2233 197.064 49.657C195.801 49.0798 194.799 48.2304 194.058 47.1087C193.328 45.987 192.964 44.6039 192.964 42.9595C192.964 41.5438 193.225 40.3731 193.748 39.4475C194.27 38.5218 194.984 37.7813 195.888 37.2259C196.792 36.6705 197.81 36.2512 198.942 35.9681C200.086 35.674 201.267 35.4617 202.487 35.331C203.957 35.1785 205.15 35.0424 206.064 34.9226C206.979 34.7919 207.644 34.5959 208.057 34.3345C208.482 34.0623 208.694 33.643 208.694 33.0767V32.9787C208.694 31.7481 208.33 30.7952 207.6 30.12C206.87 29.4448 205.819 29.1073 204.447 29.1073C202.999 29.1073 201.85 29.4231 201.001 30.0547C200.162 30.6863 199.596 31.4323 199.302 32.2926L193.78 31.5085C194.216 29.9839 194.935 28.7098 195.937 27.6861C196.939 26.6515 198.164 25.8783 199.612 25.3665C201.06 24.8438 202.661 24.5824 204.415 24.5824C205.623 24.5824 206.827 24.724 208.025 25.0071C209.223 25.2903 210.317 25.7585 211.308 26.4119C212.299 27.0545 213.094 27.9311 213.693 29.0419C214.303 30.1527 214.608 31.5412 214.608 33.2074V50H208.923V46.5533H208.727C208.368 47.2502 207.861 47.9037 207.208 48.5135C206.565 49.1125 205.754 49.5971 204.774 49.9673C203.805 50.3267 202.667 50.5064 201.36 50.5064ZM202.895 46.1612C204.082 46.1612 205.112 45.9271 205.983 45.4588C206.854 44.9797 207.524 44.348 207.992 43.5639C208.471 42.7798 208.711 41.925 208.711 40.9993V38.0426C208.526 38.1951 208.21 38.3367 207.763 38.4673C207.328 38.598 206.838 38.7124 206.293 38.8104C205.749 38.9084 205.21 38.9955 204.676 39.0717C204.142 39.148 203.68 39.2133 203.287 39.2678C202.405 39.3876 201.616 39.5836 200.919 39.8558C200.222 40.1281 199.672 40.5092 199.269 40.9993C198.866 41.4785 198.665 42.0992 198.665 42.8615C198.665 43.9505 199.062 44.7727 199.857 45.3281C200.652 45.8835 201.665 46.1612 202.895 46.1612Z" fill="#001141"/>
    <path d="M190.114 24.9091V29.4829H175.69V24.9091H190.114ZM179.251 18.8977H185.165V42.4531C185.165 43.2481 185.284 43.8579 185.524 44.2826C185.774 44.6965 186.101 44.9796 186.504 45.1321C186.907 45.2845 187.354 45.3608 187.844 45.3608C188.214 45.3608 188.551 45.3335 188.856 45.2791C189.172 45.2246 189.412 45.1756 189.575 45.1321L190.572 49.7549C190.256 49.8638 189.804 49.9836 189.216 50.1143C188.639 50.245 187.931 50.3212 187.092 50.343C185.611 50.3866 184.277 50.1633 183.09 49.6733C181.903 49.1723 180.961 48.3991 180.264 47.3537C179.578 46.3082 179.24 45.0014 179.251 43.4332V18.8977Z" fill="#001141"/>
    <path d="M156.387 35.2983V50H150.474V24.9091H156.126V29.1726H156.42C156.997 27.7678 157.917 26.6515 159.181 25.8239C160.455 24.9962 162.028 24.5824 163.901 24.5824C165.633 24.5824 167.141 24.9527 168.426 25.6932C169.722 26.4337 170.724 27.5064 171.432 28.9112C172.151 30.3161 172.505 32.0204 172.494 34.0242V50H166.58V34.9389C166.58 33.2618 166.145 31.9496 165.274 31.0021C164.413 30.0547 163.221 29.581 161.696 29.581C160.662 29.581 159.741 29.8097 158.936 30.2671C158.141 30.7136 157.514 31.3615 157.057 32.2109C156.61 33.0604 156.387 34.0895 156.387 35.2983Z" fill="#001141"/>
    <path d="M135.234 50.4901C132.719 50.4901 130.546 49.9673 128.717 48.9219C126.898 47.8655 125.499 46.3736 124.518 44.446C123.538 42.5076 123.048 40.2261 123.048 37.6016C123.048 35.0206 123.538 32.7555 124.518 30.8061C125.509 28.8459 126.892 27.3213 128.668 26.2323C130.443 25.1323 132.528 24.5824 134.924 24.5824C136.47 24.5824 137.93 24.8329 139.302 25.3338C140.685 25.8239 141.905 26.5862 142.961 27.6208C144.028 28.6553 144.867 29.973 145.476 31.5739C146.086 33.1638 146.391 35.0587 146.391 37.2585V39.0717H125.825V35.0859H140.723C140.712 33.9534 140.467 32.946 139.988 32.0639C139.509 31.1709 138.839 30.4685 137.979 29.9567C137.129 29.4449 136.138 29.1889 135.006 29.1889C133.797 29.1889 132.735 29.483 131.82 30.071C130.905 30.6482 130.192 31.4105 129.68 32.358C129.179 33.2945 128.923 34.3236 128.913 35.4453V38.9247C128.913 40.384 129.179 41.6364 129.713 42.6818C130.247 43.7164 130.993 44.5114 131.951 45.0668C132.909 45.6113 134.031 45.8835 135.316 45.8835C136.176 45.8835 136.955 45.7637 137.652 45.5242C138.349 45.2737 138.953 44.9089 139.465 44.4297C139.977 43.9505 140.364 43.357 140.625 42.6492L146.146 43.2699C145.798 44.7292 145.133 46.0033 144.153 47.0923C143.184 48.1705 141.943 49.009 140.429 49.608C138.915 50.196 137.184 50.4901 135.234 50.4901Z" fill="#001141"/>
    <path d="M94.6791 50V46.2266L111.831 21.6257H94.5811V16.5455H119.345V20.3189L102.21 44.9198H119.443V50H94.6791Z" fill="#001141"/>
    <path fill-rule="evenodd" clip-rule="evenodd" d="M19.1786 22.1457C17.2919 18.8876 16.2119 15.1055 16.2119 11.0732C16.2119 7.04055 17.2924 3.25821 19.1786 1.7502e-05C22.9436 -0.00471687 26.7593 0.950969 30.2519 2.9673C33.7441 4.98349 36.4793 7.80986 38.3575 11.0725L38.3571 11.0732H38.358C42.1732 17.6999 42.4525 26.1262 38.3575 33.219C30.1675 33.219 23.0102 28.7633 19.1786 22.146V22.1457Z" fill="#0F62FE" fill-opacity="0.4"/>
    <path fill-rule="evenodd" clip-rule="evenodd" d="M38.3577 33.219C34.2627 26.1262 34.5425 17.6999 38.3572 11.0732H38.3581L38.3577 11.0725C40.2364 7.80986 42.9716 4.98349 46.4638 2.9673C49.956 0.950969 53.7716 -0.00471687 57.5366 1.7502e-05C59.4233 3.25821 60.5033 7.04055 60.5033 11.0732C60.5033 15.1055 59.4233 18.8876 57.537 22.1457H57.5366L57.537 22.146C53.7055 28.7633 46.5477 33.219 38.3577 33.219Z" fill="#0F62FE" fill-opacity="0.3"/>
    <path fill-rule="evenodd" clip-rule="evenodd" d="M19.1787 44.2918C15.4137 44.2965 11.5983 43.3407 8.10624 41.3246C4.61386 39.3085 1.87838 36.4819 0 33.219C1.87838 29.9559 4.61386 27.1293 8.10624 25.113C11.5983 23.0968 15.4137 22.1411 19.1787 22.1457C26.8254 22.1552 34.2626 26.1261 38.3576 33.219C34.2626 40.3116 26.8254 44.2824 19.1787 44.2918Z" fill="#0F62FE" fill-opacity="0.5"/>
    <path fill-rule="evenodd" clip-rule="evenodd" d="M38.3577 33.219C42.4527 26.1261 49.8903 22.1552 57.5366 22.1457L57.537 22.146V22.1457C61.3016 22.1411 65.1172 23.0968 68.6094 25.113C72.1016 27.1293 74.8372 29.9559 76.7155 33.219C74.8372 36.4819 72.1016 39.3085 68.6094 41.3246C65.1172 43.3407 61.3016 44.2965 57.537 44.2918H57.5366C49.8903 44.2824 42.4527 40.3116 38.3577 33.219Z" fill="#0F62FE" fill-opacity="0.8"/>
    <path fill-rule="evenodd" clip-rule="evenodd" d="M38.3571 55.3646L38.3575 55.3651C36.4793 58.6276 33.7441 61.4541 30.2519 63.4702C26.7593 65.4868 22.9436 66.4426 19.1786 66.4379C17.2924 63.1796 16.2119 59.3972 16.2119 55.3646C16.2119 51.3319 17.2919 47.5501 19.1786 44.2918C23.0102 37.6744 30.1675 33.219 38.3575 33.219C42.4525 40.3116 42.1732 48.7379 38.358 55.3646H38.3571Z" fill="#0F62FE" fill-opacity="0.6"/>
    <path fill-rule="evenodd" clip-rule="evenodd" d="M38.3581 55.3646H38.3572C34.5425 48.7379 34.2627 40.3116 38.3577 33.219C46.5477 33.219 53.7055 37.6744 57.537 44.2918C59.4233 47.5501 60.5033 51.3319 60.5033 55.3646C60.5033 59.3972 59.4233 63.1796 57.5366 66.4379C53.7716 66.4426 49.956 65.4868 46.4638 63.4702C42.9716 61.4541 40.2364 58.6276 38.3577 55.3651L38.3581 55.3646Z" fill="#0F62FE" fill-opacity="0.7"/>
</svg>
