<svg width="150" height="130" viewBox="0 0 150 130" fill="none" xmlns="http://www.w3.org/2000/svg">
    <path fill-rule="evenodd" clip-rule="evenodd" d="M51.7183 51.4559C49.4465 47.5328 48.146 42.9786 48.146 38.1231C48.146 33.2673 49.447 28.7129 51.7183 24.7896C56.2519 24.7839 60.8464 25.9346 65.052 28.3626C69.2571 30.7903 72.5506 34.1937 74.8123 38.1224L74.8117 38.1231H74.8128C79.4068 46.1025 79.7432 56.2489 74.8123 64.7896C64.9504 64.7896 56.332 59.4244 51.7183 51.4563V51.4559Z" fill="#0F62FE" fill-opacity="0.4"/>
    <path fill-rule="evenodd" clip-rule="evenodd" d="M74.8123 64.7896C69.8813 56.2489 70.2183 46.1025 74.8117 38.1231H74.8128L74.8123 38.1224C77.0745 34.1937 80.368 30.7903 84.5731 28.3626C88.7781 25.9346 93.3726 24.7839 97.9062 24.7896C100.178 28.7129 101.479 33.2673 101.479 38.1231C101.479 42.9786 100.178 47.5328 97.9068 51.4559H97.9062L97.9068 51.4563C93.2931 59.4244 84.6741 64.7896 74.8123 64.7896Z" fill="#0F62FE" fill-opacity="0.3"/>
    <path fill-rule="evenodd" clip-rule="evenodd" d="M51.7185 78.1228C47.1849 78.1284 42.5907 76.9776 38.3857 74.5499C34.1805 72.1223 30.8866 68.7187 28.6248 64.7897C30.8866 60.8605 34.1805 57.4568 38.3857 55.029C42.5907 52.6012 47.1849 51.4504 51.7185 51.456C60.9261 51.4674 69.8815 56.2489 74.8124 64.7897C69.8815 73.3302 60.9261 78.1115 51.7185 78.1228Z" fill="#0F62FE" fill-opacity="0.5"/>
    <path fill-rule="evenodd" clip-rule="evenodd" d="M74.8123 64.7897C79.7432 56.2489 88.6991 51.4674 97.9062 51.456L97.9068 51.4564V51.456C102.44 51.4504 107.034 52.6012 111.239 55.029C115.444 57.4568 118.738 60.8605 121 64.7897C118.738 68.7187 115.444 72.1223 111.239 74.5499C107.034 76.9776 102.44 78.1284 97.9068 78.1228H97.9062C88.6991 78.1115 79.7432 73.3302 74.8123 64.7897Z" fill="#0F62FE" fill-opacity="0.8"/>
    <path fill-rule="evenodd" clip-rule="evenodd" d="M74.8117 91.4559L74.8123 91.4564C72.5506 95.3849 69.2571 98.7885 65.052 101.216C60.8464 103.644 56.2519 104.795 51.7183 104.79C49.447 100.866 48.146 96.3117 48.146 91.4559C48.146 86.6 49.4465 82.0461 51.7183 78.1227C56.332 70.1546 64.9504 64.7896 74.8123 64.7896C79.7432 73.3301 79.4068 83.4764 74.8128 91.4559H74.8117Z" fill="#0F62FE" fill-opacity="0.6"/>
    <path fill-rule="evenodd" clip-rule="evenodd" d="M74.8128 91.4559H74.8117C70.2183 83.4764 69.8813 73.3301 74.8123 64.7896C84.6741 64.7896 93.2931 70.1546 97.9068 78.1227C100.178 82.0461 101.479 86.6 101.479 91.4559C101.479 96.3117 100.178 100.866 97.9062 104.79C93.3726 104.795 88.7781 103.644 84.5731 101.216C80.368 98.7885 77.0745 95.3849 74.8123 91.4564L74.8128 91.4559Z" fill="#0F62FE" fill-opacity="0.7"/>
    <g opacity="0.3">
        <path fill-rule="evenodd" clip-rule="evenodd" d="M37.4056 43.1927C33.7258 36.8382 31.6194 29.4616 31.6194 21.5969C31.6194 13.7318 33.7267 6.35476 37.4056 3.41357e-05C44.7489 -0.00919973 52.1908 1.85476 59.0028 5.78738C65.8139 9.71973 71.1486 15.2323 74.8119 21.5958L74.811 21.5969H74.8129C82.2539 34.5216 82.7988 50.9562 74.8119 64.7899C58.8383 64.7899 44.8787 56.0996 37.4056 43.1933V43.1927Z" fill="#0F62FE" fill-opacity="0.4"/>
        <path fill-rule="evenodd" clip-rule="evenodd" d="M74.8113 64.7899C66.8245 50.9562 67.3703 34.5216 74.8104 21.5969H74.8122L74.8113 21.5958C78.4756 15.2323 83.8102 9.71973 90.6213 5.78738C97.4324 1.85476 104.874 -0.00919973 112.218 3.41357e-05C115.897 6.35476 118.004 13.7318 118.004 21.5969C118.004 29.4616 115.897 36.8382 112.219 43.1927H112.218L112.219 43.1933C104.745 56.0996 90.785 64.7899 74.8113 64.7899Z" fill="#0F62FE" fill-opacity="0.3"/>
        <path fill-rule="evenodd" clip-rule="evenodd" d="M37.4059 86.3867C30.0627 86.3958 22.6212 84.5317 15.8103 80.5995C8.99882 76.6674 3.66356 71.1545 0 64.7904C3.66356 58.4262 8.99882 52.9131 15.8103 48.9806C22.6212 45.0482 30.0627 43.1843 37.4059 43.1932C52.32 43.2117 66.8254 50.9565 74.8123 64.7904C66.8254 78.6238 52.32 86.3684 37.4059 86.3867Z" fill="#0F62FE" fill-opacity="0.5"/>
        <path fill-rule="evenodd" clip-rule="evenodd" d="M74.8123 64.7904C82.7991 50.9565 97.3054 43.2117 112.219 43.1932L112.219 43.1939V43.1932C119.562 43.1843 127.004 45.0482 133.815 48.9806C140.626 52.9131 145.961 58.4262 149.625 64.7904C145.961 71.1545 140.626 76.6674 133.815 80.5995C127.004 84.5317 119.562 86.3958 112.219 86.3867H112.219C97.3054 86.3684 82.7991 78.6238 74.8123 64.7904Z" fill="#0F62FE" fill-opacity="0.8"/>
        <path fill-rule="evenodd" clip-rule="evenodd" d="M74.811 107.982L74.8119 107.983C71.1486 114.346 65.8139 119.859 59.0028 123.791C52.1908 127.725 44.7489 129.589 37.4056 129.58C33.7267 123.225 31.6194 115.848 31.6194 107.982C31.6194 100.117 33.7258 92.741 37.4056 86.3861C44.8787 73.4797 58.8383 64.7898 74.8119 64.7898C82.7988 78.6232 82.2539 95.0577 74.8129 107.982H74.811Z" fill="#0F62FE" fill-opacity="0.6"/>
        <path fill-rule="evenodd" clip-rule="evenodd" d="M74.8122 107.982H74.8104C67.3703 95.0577 66.8245 78.6232 74.8113 64.7898C90.785 64.7898 104.745 73.4797 112.219 86.3861C115.897 92.741 118.004 100.117 118.004 107.982C118.004 115.848 115.897 123.225 112.218 129.58C104.874 129.589 97.4324 127.725 90.6213 123.791C83.8102 119.859 78.4756 114.346 74.8113 107.983L74.8122 107.982Z" fill="#0F62FE" fill-opacity="0.7"/>
    </g>
</svg>
